<?xml version="1.0" encoding="UTF-8" standalone="no"?>
<!-- Created with Inkscape (http://www.inkscape.org/) -->

<svg
   width="100"
   height="100"
   viewBox="0 0 26.458333 26.458333"
   version="1.1"
   id="svg157"
   inkscape:version="1.2.2 (b0a8486541, 2022-12-01)"
   sodipodi:docname="Head.svg"
   inkscape:export-filename="Head.png"
   inkscape:export-xdpi="240"
   inkscape:export-ydpi="240"
   xmlns:inkscape="http://www.inkscape.org/namespaces/inkscape"
   xmlns:sodipodi="http://sodipodi.sourceforge.net/DTD/sodipodi-0.dtd"
   xmlns="http://www.w3.org/2000/svg"
   xmlns:svg="http://www.w3.org/2000/svg">
  <sodipodi:namedview
     id="namedview159"
     pagecolor="#ffffff"
     bordercolor="#000000"
     borderopacity="0.25"
     inkscape:showpageshadow="false"
     inkscape:pageopacity="0.0"
     inkscape:pagecheckerboard="0"
     inkscape:deskcolor="#d1d1d1"
     inkscape:document-units="mm"
     showgrid="true"
     inkscape:zoom="6.2074635"
     inkscape:cx="47.926178"
     inkscape:cy="56.303191"
     inkscape:window-width="958"
     inkscape:window-height="1058"
     inkscape:window-x="960"
     inkscape:window-y="0"
     inkscape:window-maximized="1"
     inkscape:current-layer="g900">
    <inkscape:grid
       type="xygrid"
       id="grid161"
       spacingx="2.6458333"
       spacingy="2.6458333"
       units="px"
       dotted="false"
       visible="true"
       snapvisiblegridlinesonly="true"
       originx="0"
       originy="0" />
  </sodipodi:namedview>
  <defs
     id="defs154" />
  <g
     inkscape:label="Layer 1"
     inkscape:groupmode="layer"
     id="layer1">
    <g
       id="g900"
       transform="matrix(0.41572895,0,0,0.41572895,-32.179417,-19.066723)"
       style="display:inline">
      <path
         style="fill:#77bfcf;fill-opacity:1;fill-rule:evenodd;stroke-width:0.334193"
         d="m 99.605402,62.857756 4.626988,-10.474374 7.0583,2.512339 7.54922,-2.316619 2.91028,13.877569 z"
         id="path3245" />
      <path
         style="fill:#77bfcf;fill-opacity:1;fill-rule:evenodd;stroke-width:0.314653"
         d="m 81.985457,64.576536 8.048118,-4.28169 15.031815,6.456909 16.57483,1.392001 12.25465,-3.748337 -8.00585,11.968179 -29.21021,-1.957977 z"
         id="path3040"
         sodipodi:nodetypes="cccccccc" />
      <path
         style="fill:#b154cf;fill-opacity:1;fill-rule:evenodd;stroke-width:0.334193"
         d="m 96.005602,68.130804 2.96078,-6.516349 23.543248,2.36005 1.35164,7.532562 z"
         id="path3105"
         sodipodi:nodetypes="ccccc" />
      <path
         style="fill:#77bfcf;fill-opacity:1;fill-rule:evenodd;stroke-width:0.317621"
         d="M 93.404379,78.492476 92.051571,65.872237"
         id="path3247" />
      <path
         style="fill:#8a8e64;fill-opacity:1;fill-rule:evenodd;stroke-width:0.317621"
         d="m 92.936176,69.225149 5.328466,5.317488 0.51601,-8.350184 21.021918,2.207491 -0.45015,8.838737 4.11305,-3.817278 -2.53993,8.37973 -22.938858,-0.969628 z"
         id="path3249"
         sodipodi:nodetypes="ccccccccc" />
      <path
         style="fill:#77bfcf;fill-opacity:1;fill-rule:evenodd;stroke-width:0.314653"
         d="m 81.985457,64.576536 8.048118,-4.28169 15.031815,6.456909 16.57483,1.392001 12.25465,-3.748337 -9.77289,15.319715 -26.272978,-8.53588 z"
         id="path8759"
         sodipodi:nodetypes="cccccccc" />
      <path
         style="fill:#ececec;fill-opacity:1;fill-rule:evenodd;stroke-width:0.317621"
         d="m 100.93628,74.787355 c 3.34774,0.878132 5.35566,1.382405 8.92467,2.212692 0,0 -2.23546,2.20747 -5.36273,1.678749 -3.12728,-0.528721 -3.56194,-3.891441 -3.56194,-3.891441 z"
         id="path8878"
         sodipodi:nodetypes="cczc" />
      <path
         style="fill:#b154cf;fill-opacity:1;fill-rule:evenodd;stroke-width:0.264583"
         d="m 96.329717,80.408816 25.859833,1.18728 -10.72641,22.119004 z"
         id="path8940"
         sodipodi:nodetypes="cccc" />
      <path
         id="path9230"
         style="fill:#000000;fill-opacity:1;fill-rule:evenodd;stroke-width:0.293703"
         d="m 103.81744,75.533374 a 1.6809644,3.0463521 0 0 0 -0.26717,1.644861 1.6809644,3.0463521 0 0 0 0.15916,1.289844 c 0.24181,0.09046 0.50383,0.162698 0.78858,0.210839 0.80333,0.135817 1.54787,0.09085 2.21072,-0.05064 a 1.6809644,3.0463521 0 0 0 0.20361,-1.450041 1.6809644,3.0463521 0 0 0 -0.0744,-0.894519 c -1.04022,-0.251504 -2.00933,-0.492539 -3.02048,-0.750342 z" />
    </g>
  </g>
</svg>
